<svg xmlns="http://www.w3.org/2000/svg" viewBox="0 0 32 24">
  <rect width="32" height="24" fill="#fff"/>
  <g fill="#B22234">
    <rect y="0" width="32" height="1.85"/>
    <rect y="3.7" width="32" height="1.85"/>
    <rect y="7.4" width="32" height="1.85"/>
    <rect y="11.1" width="32" height="1.85"/>
    <rect y="14.8" width="32" height="1.85"/>
    <rect y="18.5" width="32" height="1.85"/>
    <rect y="22.2" width="32" height="1.8"/>
  </g>
  <rect width="12.8" height="12.9" fill="#3C3B6E"/>
  <g fill="#fff">
    <circle cx="2" cy="1.5" r="0.6"/>
    <circle cx="4.5" cy="1.5" r="0.6"/>
    <circle cx="7" cy="1.5" r="0.6"/>
    <circle cx="9.5" cy="1.5" r="0.6"/>
    <circle cx="12" cy="1.5" r="0.6"/>
    <circle cx="3.25" cy="3" r="0.6"/>
    <circle cx="5.75" cy="3" r="0.6"/>
    <circle cx="8.25" cy="3" r="0.6"/>
    <circle cx="10.75" cy="3" r="0.6"/>
    <circle cx="2" cy="4.5" r="0.6"/>
    <circle cx="4.5" cy="4.5" r="0.6"/>
    <circle cx="7" cy="4.5" r="0.6"/>
    <circle cx="9.5" cy="4.5" r="0.6"/>
    <circle cx="12" cy="4.5" r="0.6"/>
    <circle cx="3.25" cy="6" r="0.6"/>
    <circle cx="5.75" cy="6" r="0.6"/>
    <circle cx="8.25" cy="6" r="0.6"/>
    <circle cx="10.75" cy="6" r="0.6"/>
    <circle cx="2" cy="7.5" r="0.6"/>
    <circle cx="4.5" cy="7.5" r="0.6"/>
    <circle cx="7" cy="7.5" r="0.6"/>
    <circle cx="9.5" cy="7.5" r="0.6"/>
    <circle cx="12" cy="7.5" r="0.6"/>
    <circle cx="3.25" cy="9" r="0.6"/>
    <circle cx="5.75" cy="9" r="0.6"/>
    <circle cx="8.25" cy="9" r="0.6"/>
    <circle cx="10.75" cy="9" r="0.6"/>
    <circle cx="2" cy="10.5" r="0.6"/>
    <circle cx="4.5" cy="10.5" r="0.6"/>
    <circle cx="7" cy="10.5" r="0.6"/>
    <circle cx="9.5" cy="10.5" r="0.6"/>
    <circle cx="12" cy="10.5" r="0.6"/>
    <circle cx="3.25" cy="12" r="0.6"/>
    <circle cx="5.75" cy="12" r="0.6"/>
    <circle cx="8.25" cy="12" r="0.6"/>
    <circle cx="10.75" cy="12" r="0.6"/>
  </g>
</svg>
